<svg xmlns="http://www.w3.org/2000/svg" version="1.0" width="834.000000" height="1280.000000" preserveAspectRatio="xMidYMid meet"><rect id="backgroundrect" width="100%" height="100%" x="0" y="0" fill="none" stroke="none"/>

<g class="currentLayer" style=""><title>Layer 1</title><g transform="rotate(-0.15107229351997375 416.74990844725374,639.321411132828) translate(0,1280) scale(0.10000000149011612,-0.10000000149011612) " fill="#919191" stroke="none" id="svg_1" class="selected" fill-opacity="1">
<path d="M3420,12212.130081176758 c-346,-41 -600,-103 -885,-216 c-690,-274 -1279,-815 -1611,-1479 c-451,-902 -452,-1914 -3,-2810 c415,-828 1187,-1430 2095,-1634 c216,-49 365,-66 606,-72 c202,-5 431,6 504,23 c18,5 28,-5 60,-57 c103,-170 294,-313 479,-360 c36,-9 44,-14 31,-19 c-16,-5 -12,-11 23,-40 c39,-30 138,-140 169,-186 c11,-17 12,-17 6,6 c-11,43 3,19 45,-80 c23,-52 39,-100 36,-108 c-2,-7 -1,-11 4,-8 c5,3 20,-22 35,-55 c31,-72 33,-88 5,-39 c-11,19 -17,26 -13,15 c18,-49 44,-196 45,-255 c2,-63 2,-64 9,-20 c6,40 7,37 8,-31 c1,-42 4,-92 7,-110 c4,-29 3,-30 -4,-9 c-5,14 -9,40 -10,59 c-1,19 -4,32 -7,28 c-3,-3 -3,-33 1,-67 c6,-48 10,-60 22,-56 c37,15 -2,-13 -55,-38 l-59,-28 l114,-267 c63,-146 195,-450 293,-676 c98,-225 282,-651 410,-945 c671,-1546 809,-1862 814,-1868 c2,-1 35,11 74,27 l71,29 l25,-41 c30,-52 116,-135 176,-169 c134,-78 335,-78 469,-1 c103,59 182,158 222,274 c18,54 20,80 17,169 c-3,58 -10,115 -17,128 c-12,22 -9,24 53,52 c37,17 66,34 66,39 c0,9 -152,366 -365,856 c-154,354 -517,1192 -806,1858 c-257,591 -449,1030 -454,1035 c-1,2 -31,-8 -66,-22 c-73,-30 -70,-30 -64,-13 c2,6 -16,28 -41,47 c-74,57 -216,213 -256,281 c-43,72 -47,73 -18,3 c11,-26 19,-48 17,-51 c-8,-8 -58,127 -51,138 c4,7 3,9 -3,6 c-13,-8 -47,68 -38,84 c5,7 4,10 -2,6 c-6,-4 -20,16 -33,46 c-33,78 -34,87 -5,37 c14,-25 23,-36 19,-25 c-25,75 -35,158 -31,252 c3,64 1,101 -5,97 c-5,-3 7,26 26,65 c63,124 81,207 80,361 c-1,104 -6,151 -22,204 l-20,69 l26,21 c57,45 202,178 294,272 c458,467 764,1099 853,1764 c9,63 18,203 22,310 c40,1302 -742,2496 -1952,2979 c-237,94 -446,151 -730,197 c-96,15 -613,29 -705,18 zm610,-495 c172,-23 189,-25 285,-50 c352,-89 673,-244 995,-482 c86,-63 430,-396 430,-416 c0,-4 11,-21 25,-37 c31,-35 154,-213 185,-269 c41,-72 137,-268 173,-355 c159,-379 228,-821 191,-1230 c-35,-404 -152,-774 -342,-1090 c-75,-125 -194,-294 -232,-330 c-3,-3 -18,-21 -34,-40 c-49,-61 -180,-193 -246,-250 c-36,-30 -67,-57 -70,-60 c-12,-14 -235,-162 -325,-217 c-110,-67 -337,-183 -406,-208 c-369,-132 -646,-193 -911,-202 c-474,-16 -951,113 -1399,378 c-103,61 -265,170 -279,188 c-3,3 -21,18 -40,32 c-56,42 -174,153 -270,255 c-157,165 -298,369 -408,590 c-103,204 -115,235 -173,433 c-136,465 -140,975 -12,1451 c8,30 18,69 23,85 c8,34 47,144 77,220 c58,148 208,423 280,515 c7,8 33,44 60,80 c26,36 50,67 53,70 c3,3 30,34 60,70 c92,108 263,269 350,330 c19,13 37,27 40,31 c3,3 58,42 124,84 c133,88 363,208 476,249 c103,38 251,87 274,92 c10,2 33,8 50,13 c42,14 102,26 266,55 c221,39 507,45 730,15 zm1837,-6574 c23,-20 52,-50 65,-68 c13,-19 -1,-9 -32,24 c-30,30 -68,66 -85,78 c-16,12 -21,18 -10,12 c11,-5 39,-26 62,-46 zm-803,-141 c3,-8 2,-12 -4,-9 c-6,3 -10,10 -10,16 c0,14 7,11 14,-7 zm13,-126 c-3,-8 -6,-5 -6,6 c-1,11 2,17 5,13 c3,-3 4,-12 1,-19 z" id="svg_2" fill="#919191" fill-opacity="1"/>
<path d="M5627,6651.130081176758 c-3,-5 -1,-17 4,-28 c7,-17 8,-17 8,8 c1,27 -4,34 -12,20 z" id="svg_3" fill="#919191" fill-opacity="1"/>
<path d="M4140,6009.130081176758 c0,-6 4,-13 10,-16 c6,-3 7,1 4,9 c-7,18 -14,21 -14,7 z" id="svg_4" fill="#919191" fill-opacity="1"/>
<path d="M4900,5329.130081176758 c0,-6 4,-13 10,-16 c6,-3 7,1 4,9 c-7,18 -14,21 -14,7 z" id="svg_5" fill="#919191" fill-opacity="1"/>
<path d="M7642,1223.1300811767578 c6,-14 13,-24 14,-22 c6,6 -9,47 -17,47 c-5,0 -3,-11 3,-25 z" id="svg_6" fill="#919191" fill-opacity="1"/>
<path d="M6722,849.1300811767578 c-10,-6 -6,-13 13,-25 c26,-17 26,-17 14,6 c-6,13 -12,24 -13,25 c-1,1 -7,-2 -14,-6 z" id="svg_7" fill="#919191" fill-opacity="1"/>
</g></g></svg>